ISO-10303-21;
HEADER;
/* Generated by software containing ST-Developer
 * from STEP Tools, Inc. (www.steptools.com) 
 */
/* OPTION: using custom renumber hook */

FILE_DESCRIPTION(
/* description */ ('STEP AP242 Edition 2',
'CAx-IF Rec.Pracs.---Representation and Presentation of Product Manufa
cturing Information (PMI)---4.0---2014-10-13',
'CAx-IF Rec.Pracs.---3D Tessellated Geometry---0.4---2014-09-14','2;1',
'CAx-IF Rec.Pracs.---User Defined Attributes---1.5---2016-08-15'),
/* implementation_level */ '2;1');

FILE_NAME(
/* name */ 'Part Studio 1 - Part 1',
/* time_stamp */ '2026-05-29T16:12:33Z',
/* author */ (''),
/* organization */ (''),
/* preprocessor_version */ 'ST-DEVELOPER v20',
/* originating_system */ 'ONSHAPE BY PTC INC, 1.215',
/* authorisation */ '  ');

FILE_SCHEMA (('AP242_MANAGED_MODEL_BASED_3D_ENGINEERING_MIM_LF { 1 0 10303 442 3 1 4 }'));
ENDSEC;

DATA;
#10=SHAPE_REPRESENTATION_RELATIONSHIP('','',#500,#11);
#11=ADVANCED_BREP_SHAPE_REPRESENTATION('',(#498),#818);
#12=CIRCLE('',#504,0.00138705054797395);
#13=CIRCLE('',#505,0.00138705054797395);
#14=CIRCLE('',#514,0.00168994949366116);
#15=CIRCLE('',#515,0.00168994949366116);
#16=CIRCLE('',#518,0.00138705054797395);
#17=CIRCLE('',#519,0.00138705054797395);
#18=CIRCLE('',#522,0.00195344686594364);
#19=CIRCLE('',#523,0.00195344686594364);
#20=CIRCLE('',#526,0.00195344686594365);
#21=CIRCLE('',#527,0.00195344686594365);
#22=CIRCLE('',#532,0.000499999999999994);
#23=CIRCLE('',#533,0.000499999999999994);
#24=CIRCLE('',#536,0.000989827560572958);
#25=CIRCLE('',#537,0.000989827560572958);
#26=CYLINDRICAL_SURFACE('',#503,0.00138705054797395);
#27=CYLINDRICAL_SURFACE('',#513,0.00168994949366116);
#28=CYLINDRICAL_SURFACE('',#517,0.00138705054797395);
#29=CYLINDRICAL_SURFACE('',#521,0.00195344686594364);
#30=CYLINDRICAL_SURFACE('',#525,0.00195344686594365);
#31=CYLINDRICAL_SURFACE('',#531,0.000499999999999994);
#32=CYLINDRICAL_SURFACE('',#535,0.000989827560572958);
#33=ORIENTED_EDGE('',*,*,#171,.T.);
#34=ORIENTED_EDGE('',*,*,#172,.F.);
#35=ORIENTED_EDGE('',*,*,#173,.F.);
#36=ORIENTED_EDGE('',*,*,#174,.T.);
#37=ORIENTED_EDGE('',*,*,#175,.T.);
#38=ORIENTED_EDGE('',*,*,#176,.F.);
#39=ORIENTED_EDGE('',*,*,#177,.F.);
#40=ORIENTED_EDGE('',*,*,#172,.T.);
#41=ORIENTED_EDGE('',*,*,#178,.T.);
#42=ORIENTED_EDGE('',*,*,#179,.F.);
#43=ORIENTED_EDGE('',*,*,#180,.F.);
#44=ORIENTED_EDGE('',*,*,#176,.T.);
#45=ORIENTED_EDGE('',*,*,#181,.T.);
#46=ORIENTED_EDGE('',*,*,#182,.F.);
#47=ORIENTED_EDGE('',*,*,#183,.F.);
#48=ORIENTED_EDGE('',*,*,#179,.T.);
#49=ORIENTED_EDGE('',*,*,#184,.T.);
#50=ORIENTED_EDGE('',*,*,#185,.F.);
#51=ORIENTED_EDGE('',*,*,#186,.F.);
#52=ORIENTED_EDGE('',*,*,#182,.T.);
#53=ORIENTED_EDGE('',*,*,#187,.T.);
#54=ORIENTED_EDGE('',*,*,#188,.F.);
#55=ORIENTED_EDGE('',*,*,#189,.F.);
#56=ORIENTED_EDGE('',*,*,#185,.T.);
#57=ORIENTED_EDGE('',*,*,#190,.T.);
#58=ORIENTED_EDGE('',*,*,#191,.F.);
#59=ORIENTED_EDGE('',*,*,#192,.F.);
#60=ORIENTED_EDGE('',*,*,#188,.T.);
#61=ORIENTED_EDGE('',*,*,#193,.F.);
#62=ORIENTED_EDGE('',*,*,#194,.F.);
#63=ORIENTED_EDGE('',*,*,#195,.T.);
#64=ORIENTED_EDGE('',*,*,#191,.T.);
#65=ORIENTED_EDGE('',*,*,#196,.F.);
#66=ORIENTED_EDGE('',*,*,#197,.F.);
#67=ORIENTED_EDGE('',*,*,#198,.T.);
#68=ORIENTED_EDGE('',*,*,#194,.T.);
#69=ORIENTED_EDGE('',*,*,#199,.T.);
#70=ORIENTED_EDGE('',*,*,#200,.F.);
#71=ORIENTED_EDGE('',*,*,#201,.F.);
#72=ORIENTED_EDGE('',*,*,#197,.T.);
#73=ORIENTED_EDGE('',*,*,#202,.F.);
#74=ORIENTED_EDGE('',*,*,#203,.F.);
#75=ORIENTED_EDGE('',*,*,#204,.T.);
#76=ORIENTED_EDGE('',*,*,#200,.T.);
#77=ORIENTED_EDGE('',*,*,#205,.T.);
#78=ORIENTED_EDGE('',*,*,#206,.F.);
#79=ORIENTED_EDGE('',*,*,#207,.F.);
#80=ORIENTED_EDGE('',*,*,#203,.T.);
#81=ORIENTED_EDGE('',*,*,#208,.F.);
#82=ORIENTED_EDGE('',*,*,#209,.F.);
#83=ORIENTED_EDGE('',*,*,#210,.T.);
#84=ORIENTED_EDGE('',*,*,#206,.T.);
#85=ORIENTED_EDGE('',*,*,#211,.T.);
#86=ORIENTED_EDGE('',*,*,#212,.F.);
#87=ORIENTED_EDGE('',*,*,#213,.F.);
#88=ORIENTED_EDGE('',*,*,#209,.T.);
#89=ORIENTED_EDGE('',*,*,#214,.T.);
#90=ORIENTED_EDGE('',*,*,#215,.F.);
#91=ORIENTED_EDGE('',*,*,#216,.F.);
#92=ORIENTED_EDGE('',*,*,#212,.T.);
#93=ORIENTED_EDGE('',*,*,#217,.T.);
#94=ORIENTED_EDGE('',*,*,#218,.F.);
#95=ORIENTED_EDGE('',*,*,#219,.F.);
#96=ORIENTED_EDGE('',*,*,#215,.T.);
#97=ORIENTED_EDGE('',*,*,#220,.T.);
#98=ORIENTED_EDGE('',*,*,#221,.F.);
#99=ORIENTED_EDGE('',*,*,#222,.F.);
#100=ORIENTED_EDGE('',*,*,#218,.T.);
#101=ORIENTED_EDGE('',*,*,#223,.T.);
#102=ORIENTED_EDGE('',*,*,#224,.F.);
#103=ORIENTED_EDGE('',*,*,#225,.F.);
#104=ORIENTED_EDGE('',*,*,#221,.T.);
#105=ORIENTED_EDGE('',*,*,#226,.F.);
#106=ORIENTED_EDGE('',*,*,#227,.F.);
#107=ORIENTED_EDGE('',*,*,#228,.T.);
#108=ORIENTED_EDGE('',*,*,#224,.T.);
#109=ORIENTED_EDGE('',*,*,#229,.T.);
#110=ORIENTED_EDGE('',*,*,#230,.F.);
#111=ORIENTED_EDGE('',*,*,#231,.F.);
#112=ORIENTED_EDGE('',*,*,#227,.T.);
#113=ORIENTED_EDGE('',*,*,#232,.F.);
#114=ORIENTED_EDGE('',*,*,#233,.F.);
#115=ORIENTED_EDGE('',*,*,#234,.T.);
#116=ORIENTED_EDGE('',*,*,#230,.T.);
#117=ORIENTED_EDGE('',*,*,#235,.T.);
#118=ORIENTED_EDGE('',*,*,#236,.F.);
#119=ORIENTED_EDGE('',*,*,#237,.F.);
#120=ORIENTED_EDGE('',*,*,#233,.T.);
#121=ORIENTED_EDGE('',*,*,#238,.F.);
#122=ORIENTED_EDGE('',*,*,#174,.F.);
#123=ORIENTED_EDGE('',*,*,#239,.T.);
#124=ORIENTED_EDGE('',*,*,#236,.T.);
#125=ORIENTED_EDGE('',*,*,#173,.T.);
#126=ORIENTED_EDGE('',*,*,#177,.T.);
#127=ORIENTED_EDGE('',*,*,#180,.T.);
#128=ORIENTED_EDGE('',*,*,#183,.T.);
#129=ORIENTED_EDGE('',*,*,#186,.T.);
#130=ORIENTED_EDGE('',*,*,#189,.T.);
#131=ORIENTED_EDGE('',*,*,#192,.T.);
#132=ORIENTED_EDGE('',*,*,#195,.F.);
#133=ORIENTED_EDGE('',*,*,#198,.F.);
#134=ORIENTED_EDGE('',*,*,#201,.T.);
#135=ORIENTED_EDGE('',*,*,#204,.F.);
#136=ORIENTED_EDGE('',*,*,#207,.T.);
#137=ORIENTED_EDGE('',*,*,#210,.F.);
#138=ORIENTED_EDGE('',*,*,#213,.T.);
#139=ORIENTED_EDGE('',*,*,#216,.T.);
#140=ORIENTED_EDGE('',*,*,#219,.T.);
#141=ORIENTED_EDGE('',*,*,#222,.T.);
#142=ORIENTED_EDGE('',*,*,#225,.T.);
#143=ORIENTED_EDGE('',*,*,#228,.F.);
#144=ORIENTED_EDGE('',*,*,#231,.T.);
#145=ORIENTED_EDGE('',*,*,#234,.F.);
#146=ORIENTED_EDGE('',*,*,#237,.T.);
#147=ORIENTED_EDGE('',*,*,#239,.F.);
#148=ORIENTED_EDGE('',*,*,#171,.F.);
#149=ORIENTED_EDGE('',*,*,#238,.T.);
#150=ORIENTED_EDGE('',*,*,#235,.F.);
#151=ORIENTED_EDGE('',*,*,#232,.T.);
#152=ORIENTED_EDGE('',*,*,#229,.F.);
#153=ORIENTED_EDGE('',*,*,#226,.T.);
#154=ORIENTED_EDGE('',*,*,#223,.F.);
#155=ORIENTED_EDGE('',*,*,#220,.F.);
#156=ORIENTED_EDGE('',*,*,#217,.F.);
#157=ORIENTED_EDGE('',*,*,#214,.F.);
#158=ORIENTED_EDGE('',*,*,#211,.F.);
#159=ORIENTED_EDGE('',*,*,#208,.T.);
#160=ORIENTED_EDGE('',*,*,#205,.F.);
#161=ORIENTED_EDGE('',*,*,#202,.T.);
#162=ORIENTED_EDGE('',*,*,#199,.F.);
#163=ORIENTED_EDGE('',*,*,#196,.T.);
#164=ORIENTED_EDGE('',*,*,#193,.T.);
#165=ORIENTED_EDGE('',*,*,#190,.F.);
#166=ORIENTED_EDGE('',*,*,#187,.F.);
#167=ORIENTED_EDGE('',*,*,#184,.F.);
#168=ORIENTED_EDGE('',*,*,#181,.F.);
#169=ORIENTED_EDGE('',*,*,#178,.F.);
#170=ORIENTED_EDGE('',*,*,#175,.F.);
#171=EDGE_CURVE('',#240,#241,#286,.T.);
#172=EDGE_CURVE('',#242,#241,#287,.T.);
#173=EDGE_CURVE('',#243,#242,#288,.T.);
#174=EDGE_CURVE('',#243,#240,#289,.T.);
#175=EDGE_CURVE('',#241,#244,#12,.T.);
#176=EDGE_CURVE('',#245,#244,#290,.T.);
#177=EDGE_CURVE('',#242,#245,#13,.T.);
#178=EDGE_CURVE('',#244,#246,#291,.T.);
#179=EDGE_CURVE('',#247,#246,#292,.T.);
#180=EDGE_CURVE('',#245,#247,#293,.T.);
#181=EDGE_CURVE('',#246,#248,#294,.T.);
#182=EDGE_CURVE('',#249,#248,#295,.T.);
#183=EDGE_CURVE('',#247,#249,#296,.T.);
#184=EDGE_CURVE('',#248,#250,#297,.T.);
#185=EDGE_CURVE('',#251,#250,#298,.T.);
#186=EDGE_CURVE('',#249,#251,#299,.T.);
#187=EDGE_CURVE('',#250,#252,#300,.T.);
#188=EDGE_CURVE('',#253,#252,#301,.T.);
#189=EDGE_CURVE('',#251,#253,#302,.T.);
#190=EDGE_CURVE('',#252,#254,#303,.T.);
#191=EDGE_CURVE('',#255,#254,#304,.T.);
#192=EDGE_CURVE('',#253,#255,#305,.T.);
#193=EDGE_CURVE('',#256,#254,#306,.T.);
#194=EDGE_CURVE('',#257,#256,#307,.T.);
#195=EDGE_CURVE('',#257,#255,#308,.T.);
#196=EDGE_CURVE('',#258,#256,#309,.T.);
#197=EDGE_CURVE('',#259,#258,#310,.T.);
#198=EDGE_CURVE('',#259,#257,#311,.T.);
#199=EDGE_CURVE('',#258,#260,#14,.T.);
#200=EDGE_CURVE('',#261,#260,#312,.T.);
#201=EDGE_CURVE('',#259,#261,#15,.T.);
#202=EDGE_CURVE('',#262,#260,#313,.T.);
#203=EDGE_CURVE('',#263,#262,#314,.T.);
#204=EDGE_CURVE('',#263,#261,#315,.T.);
#205=EDGE_CURVE('',#262,#264,#16,.T.);
#206=EDGE_CURVE('',#265,#264,#316,.T.);
#207=EDGE_CURVE('',#263,#265,#17,.T.);
#208=EDGE_CURVE('',#266,#264,#317,.T.);
#209=EDGE_CURVE('',#267,#266,#318,.T.);
#210=EDGE_CURVE('',#267,#265,#319,.T.);
#211=EDGE_CURVE('',#266,#268,#18,.T.);
#212=EDGE_CURVE('',#269,#268,#320,.T.);
#213=EDGE_CURVE('',#267,#269,#19,.T.);
#214=EDGE_CURVE('',#268,#270,#321,.T.);
#215=EDGE_CURVE('',#271,#270,#322,.T.);
#216=EDGE_CURVE('',#269,#271,#323,.T.);
#217=EDGE_CURVE('',#270,#272,#20,.T.);
#218=EDGE_CURVE('',#273,#272,#324,.T.);
#219=EDGE_CURVE('',#271,#273,#21,.T.);
#220=EDGE_CURVE('',#272,#274,#325,.T.);
#221=EDGE_CURVE('',#275,#274,#326,.T.);
#222=EDGE_CURVE('',#273,#275,#327,.T.);
#223=EDGE_CURVE('',#274,#276,#328,.T.);
#224=EDGE_CURVE('',#277,#276,#329,.T.);
#225=EDGE_CURVE('',#275,#277,#330,.T.);
#226=EDGE_CURVE('',#278,#276,#331,.T.);
#227=EDGE_CURVE('',#279,#278,#332,.T.);
#228=EDGE_CURVE('',#279,#277,#333,.T.);
#229=EDGE_CURVE('',#278,#280,#22,.T.);
#230=EDGE_CURVE('',#281,#280,#334,.T.);
#231=EDGE_CURVE('',#279,#281,#23,.T.);
#232=EDGE_CURVE('',#282,#280,#335,.T.);
#233=EDGE_CURVE('',#283,#282,#336,.T.);
#234=EDGE_CURVE('',#283,#281,#337,.T.);
#235=EDGE_CURVE('',#282,#284,#24,.T.);
#236=EDGE_CURVE('',#285,#284,#338,.T.);
#237=EDGE_CURVE('',#283,#285,#25,.T.);
#238=EDGE_CURVE('',#240,#284,#339,.T.);
#239=EDGE_CURVE('',#243,#285,#340,.T.);
#240=VERTEX_POINT('',#679);
#241=VERTEX_POINT('',#680);
#242=VERTEX_POINT('',#682);
#243=VERTEX_POINT('',#684);
#244=VERTEX_POINT('',#688);
#245=VERTEX_POINT('',#690);
#246=VERTEX_POINT('',#694);
#247=VERTEX_POINT('',#696);
#248=VERTEX_POINT('',#700);
#249=VERTEX_POINT('',#702);
#250=VERTEX_POINT('',#706);
#251=VERTEX_POINT('',#708);
#252=VERTEX_POINT('',#712);
#253=VERTEX_POINT('',#714);
#254=VERTEX_POINT('',#718);
#255=VERTEX_POINT('',#720);
#256=VERTEX_POINT('',#724);
#257=VERTEX_POINT('',#726);
#258=VERTEX_POINT('',#730);
#259=VERTEX_POINT('',#732);
#260=VERTEX_POINT('',#736);
#261=VERTEX_POINT('',#738);
#262=VERTEX_POINT('',#742);
#263=VERTEX_POINT('',#744);
#264=VERTEX_POINT('',#748);
#265=VERTEX_POINT('',#750);
#266=VERTEX_POINT('',#754);
#267=VERTEX_POINT('',#756);
#268=VERTEX_POINT('',#760);
#269=VERTEX_POINT('',#762);
#270=VERTEX_POINT('',#766);
#271=VERTEX_POINT('',#768);
#272=VERTEX_POINT('',#772);
#273=VERTEX_POINT('',#774);
#274=VERTEX_POINT('',#778);
#275=VERTEX_POINT('',#780);
#276=VERTEX_POINT('',#784);
#277=VERTEX_POINT('',#786);
#278=VERTEX_POINT('',#790);
#279=VERTEX_POINT('',#792);
#280=VERTEX_POINT('',#796);
#281=VERTEX_POINT('',#798);
#282=VERTEX_POINT('',#802);
#283=VERTEX_POINT('',#804);
#284=VERTEX_POINT('',#808);
#285=VERTEX_POINT('',#810);
#286=LINE('',#678,#341);
#287=LINE('',#681,#342);
#288=LINE('',#683,#343);
#289=LINE('',#685,#344);
#290=LINE('',#689,#345);
#291=LINE('',#693,#346);
#292=LINE('',#695,#347);
#293=LINE('',#697,#348);
#294=LINE('',#699,#349);
#295=LINE('',#701,#350);
#296=LINE('',#703,#351);
#297=LINE('',#705,#352);
#298=LINE('',#707,#353);
#299=LINE('',#709,#354);
#300=LINE('',#711,#355);
#301=LINE('',#713,#356);
#302=LINE('',#715,#357);
#303=LINE('',#717,#358);
#304=LINE('',#719,#359);
#305=LINE('',#721,#360);
#306=LINE('',#723,#361);
#307=LINE('',#725,#362);
#308=LINE('',#727,#363);
#309=LINE('',#729,#364);
#310=LINE('',#731,#365);
#311=LINE('',#733,#366);
#312=LINE('',#737,#367);
#313=LINE('',#741,#368);
#314=LINE('',#743,#369);
#315=LINE('',#745,#370);
#316=LINE('',#749,#371);
#317=LINE('',#753,#372);
#318=LINE('',#755,#373);
#319=LINE('',#757,#374);
#320=LINE('',#761,#375);
#321=LINE('',#765,#376);
#322=LINE('',#767,#377);
#323=LINE('',#769,#378);
#324=LINE('',#773,#379);
#325=LINE('',#777,#380);
#326=LINE('',#779,#381);
#327=LINE('',#781,#382);
#328=LINE('',#783,#383);
#329=LINE('',#785,#384);
#330=LINE('',#787,#385);
#331=LINE('',#789,#386);
#332=LINE('',#791,#387);
#333=LINE('',#793,#388);
#334=LINE('',#797,#389);
#335=LINE('',#801,#390);
#336=LINE('',#803,#391);
#337=LINE('',#805,#392);
#338=LINE('',#809,#393);
#339=LINE('',#813,#394);
#340=LINE('',#814,#395);
#341=VECTOR('',#545,1.);
#342=VECTOR('',#546,1.);
#343=VECTOR('',#547,1.);
#344=VECTOR('',#548,1.);
#345=VECTOR('',#553,1.);
#346=VECTOR('',#558,1.);
#347=VECTOR('',#559,1.);
#348=VECTOR('',#560,1.);
#349=VECTOR('',#563,1.);
#350=VECTOR('',#564,1.);
#351=VECTOR('',#565,1.);
#352=VECTOR('',#568,1.);
#353=VECTOR('',#569,1.);
#354=VECTOR('',#570,1.);
#355=VECTOR('',#573,1.);
#356=VECTOR('',#574,1.);
#357=VECTOR('',#575,1.);
#358=VECTOR('',#578,1.);
#359=VECTOR('',#579,1.);
#360=VECTOR('',#580,1.);
#361=VECTOR('',#583,1.);
#362=VECTOR('',#584,1.);
#363=VECTOR('',#585,1.);
#364=VECTOR('',#588,1.);
#365=VECTOR('',#589,1.);
#366=VECTOR('',#590,1.);
#367=VECTOR('',#595,1.);
#368=VECTOR('',#600,1.);
#369=VECTOR('',#601,1.);
#370=VECTOR('',#602,1.);
#371=VECTOR('',#607,1.);
#372=VECTOR('',#612,1.);
#373=VECTOR('',#613,1.);
#374=VECTOR('',#614,1.);
#375=VECTOR('',#619,1.);
#376=VECTOR('',#624,1.);
#377=VECTOR('',#625,1.);
#378=VECTOR('',#626,1.);
#379=VECTOR('',#631,1.);
#380=VECTOR('',#636,1.);
#381=VECTOR('',#637,1.);
#382=VECTOR('',#638,1.);
#383=VECTOR('',#641,1.);
#384=VECTOR('',#642,1.);
#385=VECTOR('',#643,1.);
#386=VECTOR('',#646,1.);
#387=VECTOR('',#647,1.);
#388=VECTOR('',#648,1.);
#389=VECTOR('',#653,1.);
#390=VECTOR('',#658,1.);
#391=VECTOR('',#659,1.);
#392=VECTOR('',#660,1.);
#393=VECTOR('',#665,1.);
#394=VECTOR('',#670,1.);
#395=VECTOR('',#671,1.);
#396=EDGE_LOOP('',(#33,#34,#35,#36));
#397=EDGE_LOOP('',(#37,#38,#39,#40));
#398=EDGE_LOOP('',(#41,#42,#43,#44));
#399=EDGE_LOOP('',(#45,#46,#47,#48));
#400=EDGE_LOOP('',(#49,#50,#51,#52));
#401=EDGE_LOOP('',(#53,#54,#55,#56));
#402=EDGE_LOOP('',(#57,#58,#59,#60));
#403=EDGE_LOOP('',(#61,#62,#63,#64));
#404=EDGE_LOOP('',(#65,#66,#67,#68));
#405=EDGE_LOOP('',(#69,#70,#71,#72));
#406=EDGE_LOOP('',(#73,#74,#75,#76));
#407=EDGE_LOOP('',(#77,#78,#79,#80));
#408=EDGE_LOOP('',(#81,#82,#83,#84));
#409=EDGE_LOOP('',(#85,#86,#87,#88));
#410=EDGE_LOOP('',(#89,#90,#91,#92));
#411=EDGE_LOOP('',(#93,#94,#95,#96));
#412=EDGE_LOOP('',(#97,#98,#99,#100));
#413=EDGE_LOOP('',(#101,#102,#103,#104));
#414=EDGE_LOOP('',(#105,#106,#107,#108));
#415=EDGE_LOOP('',(#109,#110,#111,#112));
#416=EDGE_LOOP('',(#113,#114,#115,#116));
#417=EDGE_LOOP('',(#117,#118,#119,#120));
#418=EDGE_LOOP('',(#121,#122,#123,#124));
#419=EDGE_LOOP('',(#125,#126,#127,#128,#129,#130,#131,#132,#133,#134,#135,
#136,#137,#138,#139,#140,#141,#142,#143,#144,#145,#146,#147));
#420=EDGE_LOOP('',(#148,#149,#150,#151,#152,#153,#154,#155,#156,#157,#158,
#159,#160,#161,#162,#163,#164,#165,#166,#167,#168,#169,#170));
#421=FACE_BOUND('',#396,.T.);
#422=FACE_BOUND('',#397,.T.);
#423=FACE_BOUND('',#398,.T.);
#424=FACE_BOUND('',#399,.T.);
#425=FACE_BOUND('',#400,.T.);
#426=FACE_BOUND('',#401,.T.);
#427=FACE_BOUND('',#402,.T.);
#428=FACE_BOUND('',#403,.T.);
#429=FACE_BOUND('',#404,.T.);
#430=FACE_BOUND('',#405,.T.);
#431=FACE_BOUND('',#406,.T.);
#432=FACE_BOUND('',#407,.T.);
#433=FACE_BOUND('',#408,.T.);
#434=FACE_BOUND('',#409,.T.);
#435=FACE_BOUND('',#410,.T.);
#436=FACE_BOUND('',#411,.T.);
#437=FACE_BOUND('',#412,.T.);
#438=FACE_BOUND('',#413,.T.);
#439=FACE_BOUND('',#414,.T.);
#440=FACE_BOUND('',#415,.T.);
#441=FACE_BOUND('',#416,.T.);
#442=FACE_BOUND('',#417,.T.);
#443=FACE_BOUND('',#418,.T.);
#444=FACE_BOUND('',#419,.T.);
#445=FACE_BOUND('',#420,.T.);
#446=PLANE('',#502);
#447=PLANE('',#506);
#448=PLANE('',#507);
#449=PLANE('',#508);
#450=PLANE('',#509);
#451=PLANE('',#510);
#452=PLANE('',#511);
#453=PLANE('',#512);
#454=PLANE('',#516);
#455=PLANE('',#520);
#456=PLANE('',#524);
#457=PLANE('',#528);
#458=PLANE('',#529);
#459=PLANE('',#530);
#460=PLANE('',#534);
#461=PLANE('',#538);
#462=PLANE('',#539);
#463=PLANE('',#540);
#464=ADVANCED_FACE('',(#421),#446,.F.);
#465=ADVANCED_FACE('',(#422),#26,.T.);
#466=ADVANCED_FACE('',(#423),#447,.F.);
#467=ADVANCED_FACE('',(#424),#448,.F.);
#468=ADVANCED_FACE('',(#425),#449,.F.);
#469=ADVANCED_FACE('',(#426),#450,.F.);
#470=ADVANCED_FACE('',(#427),#451,.F.);
#471=ADVANCED_FACE('',(#428),#452,.T.);
#472=ADVANCED_FACE('',(#429),#453,.T.);
#473=ADVANCED_FACE('',(#430),#27,.T.);
#474=ADVANCED_FACE('',(#431),#454,.T.);
#475=ADVANCED_FACE('',(#432),#28,.T.);
#476=ADVANCED_FACE('',(#433),#455,.T.);
#477=ADVANCED_FACE('',(#434),#29,.T.);
#478=ADVANCED_FACE('',(#435),#456,.F.);
#479=ADVANCED_FACE('',(#436),#30,.T.);
#480=ADVANCED_FACE('',(#437),#457,.F.);
#481=ADVANCED_FACE('',(#438),#458,.F.);
#482=ADVANCED_FACE('',(#439),#459,.T.);
#483=ADVANCED_FACE('',(#440),#31,.T.);
#484=ADVANCED_FACE('',(#441),#460,.T.);
#485=ADVANCED_FACE('',(#442),#32,.T.);
#486=ADVANCED_FACE('',(#443),#461,.T.);
#487=ADVANCED_FACE('',(#444),#462,.T.);
#488=ADVANCED_FACE('',(#445),#463,.F.);
#489=CLOSED_SHELL('',(#464,#465,#466,#467,#468,#469,#470,#471,#472,#473,
#474,#475,#476,#477,#478,#479,#480,#481,#482,#483,#484,#485,#486,#487,#488));
#490=STYLED_ITEM('',(#491),#498);
#491=PRESENTATION_STYLE_ASSIGNMENT((#492));
#492=SURFACE_STYLE_USAGE(.BOTH.,#493);
#493=SURFACE_SIDE_STYLE('',(#494));
#494=SURFACE_STYLE_FILL_AREA(#495);
#495=FILL_AREA_STYLE('',(#496));
#496=FILL_AREA_STYLE_COLOUR('',#497);
#497=COLOUR_RGB('',0.615686274509804,0.811764705882353,0.929411764705882);
#498=MANIFOLD_SOLID_BREP('Part 1',#489);
#499=SHAPE_DEFINITION_REPRESENTATION(#823,#500);
#500=SHAPE_REPRESENTATION('Part 1',(#501),#818);
#501=AXIS2_PLACEMENT_3D('',#676,#541,#542);
#502=AXIS2_PLACEMENT_3D('',#677,#543,#544);
#503=AXIS2_PLACEMENT_3D('',#686,#549,#550);
#504=AXIS2_PLACEMENT_3D('',#687,#551,#552);
#505=AXIS2_PLACEMENT_3D('',#691,#554,#555);
#506=AXIS2_PLACEMENT_3D('',#692,#556,#557);
#507=AXIS2_PLACEMENT_3D('',#698,#561,#562);
#508=AXIS2_PLACEMENT_3D('',#704,#566,#567);
#509=AXIS2_PLACEMENT_3D('',#710,#571,#572);
#510=AXIS2_PLACEMENT_3D('',#716,#576,#577);
#511=AXIS2_PLACEMENT_3D('',#722,#581,#582);
#512=AXIS2_PLACEMENT_3D('',#728,#586,#587);
#513=AXIS2_PLACEMENT_3D('',#734,#591,#592);
#514=AXIS2_PLACEMENT_3D('',#735,#593,#594);
#515=AXIS2_PLACEMENT_3D('',#739,#596,#597);
#516=AXIS2_PLACEMENT_3D('',#740,#598,#599);
#517=AXIS2_PLACEMENT_3D('',#746,#603,#604);
#518=AXIS2_PLACEMENT_3D('',#747,#605,#606);
#519=AXIS2_PLACEMENT_3D('',#751,#608,#609);
#520=AXIS2_PLACEMENT_3D('',#752,#610,#611);
#521=AXIS2_PLACEMENT_3D('',#758,#615,#616);
#522=AXIS2_PLACEMENT_3D('',#759,#617,#618);
#523=AXIS2_PLACEMENT_3D('',#763,#620,#621);
#524=AXIS2_PLACEMENT_3D('',#764,#622,#623);
#525=AXIS2_PLACEMENT_3D('',#770,#627,#628);
#526=AXIS2_PLACEMENT_3D('',#771,#629,#630);
#527=AXIS2_PLACEMENT_3D('',#775,#632,#633);
#528=AXIS2_PLACEMENT_3D('',#776,#634,#635);
#529=AXIS2_PLACEMENT_3D('',#782,#639,#640);
#530=AXIS2_PLACEMENT_3D('',#788,#644,#645);
#531=AXIS2_PLACEMENT_3D('',#794,#649,#650);
#532=AXIS2_PLACEMENT_3D('',#795,#651,#652);
#533=AXIS2_PLACEMENT_3D('',#799,#654,#655);
#534=AXIS2_PLACEMENT_3D('',#800,#656,#657);
#535=AXIS2_PLACEMENT_3D('',#806,#661,#662);
#536=AXIS2_PLACEMENT_3D('',#807,#663,#664);
#537=AXIS2_PLACEMENT_3D('',#811,#666,#667);
#538=AXIS2_PLACEMENT_3D('',#812,#668,#669);
#539=AXIS2_PLACEMENT_3D('',#815,#672,#673);
#540=AXIS2_PLACEMENT_3D('',#816,#674,#675);
#541=DIRECTION('',(0.,0.,1.));
#542=DIRECTION('',(1.,0.,0.));
#543=DIRECTION('',(1.26209597633781E-16,0.,-1.));
#544=DIRECTION('',(-1.,0.,-1.26209597633781E-16));
#545=DIRECTION('',(-1.,0.,-1.26209597633781E-16));
#546=DIRECTION('',(0.,1.,0.));
#547=DIRECTION('',(-1.,0.,-1.26209597633781E-16));
#548=DIRECTION('',(0.,1.,0.));
#549=DIRECTION('',(0.,1.,0.));
#550=DIRECTION('',(0.,0.,1.));
#551=DIRECTION('',(0.,-1.,0.));
#552=DIRECTION('',(0.,0.,-1.));
#553=DIRECTION('',(0.,1.,0.));
#554=DIRECTION('',(0.,-1.,0.));
#555=DIRECTION('',(0.,0.,-1.));
#556=DIRECTION('',(1.,0.,0.));
#557=DIRECTION('',(0.,0.,-1.));
#558=DIRECTION('',(0.,0.,-1.));
#559=DIRECTION('',(0.,1.,0.));
#560=DIRECTION('',(0.,0.,-1.));
#561=DIRECTION('',(0.,0.,1.));
#562=DIRECTION('',(1.,0.,0.));
#563=DIRECTION('',(1.,0.,0.));
#564=DIRECTION('',(0.,1.,0.));
#565=DIRECTION('',(1.,0.,0.));
#566=DIRECTION('',(0.917338095570601,0.,-0.398109053419918));
#567=DIRECTION('',(-0.398109053419918,0.,-0.917338095570601));
#568=DIRECTION('',(-0.398109053419918,0.,-0.917338095570601));
#569=DIRECTION('',(0.,1.,0.));
#570=DIRECTION('',(-0.398109053419918,0.,-0.917338095570601));
#571=DIRECTION('',(0.00189250953124312,0.,-0.999998209202234));
#572=DIRECTION('',(-0.999998209202234,0.,-0.00189250953124312));
#573=DIRECTION('',(-0.999998209202234,0.,-0.00189250953124312));
#574=DIRECTION('',(0.,1.,0.));
#575=DIRECTION('',(-0.999998209202234,0.,-0.00189250953124312));
#576=DIRECTION('',(-0.921800530114095,0.,-0.387664523372172));
#577=DIRECTION('',(-0.387664523372172,0.,0.921800530114095));
#578=DIRECTION('',(-0.387664523372172,0.,0.921800530114095));
#579=DIRECTION('',(0.,1.,0.));
#580=DIRECTION('',(-0.387664523372172,0.,0.921800530114095));
#581=DIRECTION('',(0.,0.,-1.));
#582=DIRECTION('',(-1.,0.,0.));
#583=DIRECTION('',(-1.,0.,0.));
#584=DIRECTION('',(0.,1.,0.));
#585=DIRECTION('',(-1.,0.,0.));
#586=DIRECTION('',(0.999999758543495,0.,-0.000694919385624113));
#587=DIRECTION('',(-0.000694919385624113,0.,-0.999999758543495));
#588=DIRECTION('',(-0.000694919385624113,0.,-0.999999758543495));
#589=DIRECTION('',(0.,1.,0.));
#590=DIRECTION('',(-0.000694919385624113,0.,-0.999999758543495));
#591=DIRECTION('',(0.,1.,0.));
#592=DIRECTION('',(0.,0.,1.));
#593=DIRECTION('',(0.,-1.,0.));
#594=DIRECTION('',(0.,0.,-1.));
#595=DIRECTION('',(0.,1.,0.));
#596=DIRECTION('',(0.,-1.,0.));
#597=DIRECTION('',(0.,0.,-1.));
#598=DIRECTION('',(0.000694919385623891,0.,0.999999758543495));
#599=DIRECTION('',(0.999999758543495,0.,-0.000694919385623891));
#600=DIRECTION('',(0.999999758543495,0.,-0.000694919385623891));
#601=DIRECTION('',(0.,1.,0.));
#602=DIRECTION('',(0.999999758543495,0.,-0.000694919385623891));
#603=DIRECTION('',(0.,1.,0.));
#604=DIRECTION('',(0.,0.,1.));
#605=DIRECTION('',(0.,-1.,0.));
#606=DIRECTION('',(0.,0.,-1.));
#607=DIRECTION('',(0.,1.,0.));
#608=DIRECTION('',(0.,-1.,0.));
#609=DIRECTION('',(0.,0.,-1.));
#610=DIRECTION('',(-0.933612815562366,0.,-0.358283561746434));
#611=DIRECTION('',(-0.358283561746434,0.,0.933612815562366));
#612=DIRECTION('',(-0.358283561746434,0.,0.933612815562366));
#613=DIRECTION('',(0.,1.,0.));
#614=DIRECTION('',(-0.358283561746434,0.,0.933612815562366));
#615=DIRECTION('',(0.,1.,0.));
#616=DIRECTION('',(0.,0.,1.));
#617=DIRECTION('',(0.,-1.,0.));
#618=DIRECTION('',(0.,0.,-1.));
#619=DIRECTION('',(0.,1.,0.));
#620=DIRECTION('',(0.,-1.,0.));
#621=DIRECTION('',(0.,0.,-1.));
#622=DIRECTION('',(0.,0.,1.));
#623=DIRECTION('',(1.,0.,0.));
#624=DIRECTION('',(1.,0.,0.));
#625=DIRECTION('',(0.,1.,0.));
#626=DIRECTION('',(1.,0.,0.));
#627=DIRECTION('',(0.,1.,0.));
#628=DIRECTION('',(0.,0.,1.));
#629=DIRECTION('',(0.,-1.,0.));
#630=DIRECTION('',(0.,0.,-1.));
#631=DIRECTION('',(0.,1.,0.));
#632=DIRECTION('',(0.,-1.,0.));
#633=DIRECTION('',(0.,0.,-1.));
#634=DIRECTION('',(-0.914533015006155,0.,0.404511266176545));
#635=DIRECTION('',(0.404511266176545,0.,0.914533015006155));
#636=DIRECTION('',(0.404511266176545,0.,0.914533015006155));
#637=DIRECTION('',(0.,1.,0.));
#638=DIRECTION('',(0.404511266176545,0.,0.914533015006155));
#639=DIRECTION('',(0.404511266176545,0.,0.914533015006155));
#640=DIRECTION('',(0.914533015006155,0.,-0.404511266176545));
#641=DIRECTION('',(0.914533015006155,0.,-0.404511266176545));
#642=DIRECTION('',(0.,1.,0.));
#643=DIRECTION('',(0.914533015006155,0.,-0.404511266176545));
#644=DIRECTION('',(-0.474526033774322,0.,-0.880241468729127));
#645=DIRECTION('',(-0.880241468729127,0.,0.474526033774322));
#646=DIRECTION('',(-0.880241468729127,0.,0.474526033774322));
#647=DIRECTION('',(0.,1.,0.));
#648=DIRECTION('',(-0.880241468729127,0.,0.474526033774322));
#649=DIRECTION('',(0.,1.,0.));
#650=DIRECTION('',(0.,0.,1.));
#651=DIRECTION('',(0.,-1.,0.));
#652=DIRECTION('',(0.,0.,-1.));
#653=DIRECTION('',(0.,1.,0.));
#654=DIRECTION('',(0.,-1.,0.));
#655=DIRECTION('',(0.,0.,-1.));
#656=DIRECTION('',(0.902727228555554,0.,-0.430213378248991));
#657=DIRECTION('',(-0.430213378248991,0.,-0.902727228555554));
#658=DIRECTION('',(-0.430213378248991,0.,-0.902727228555554));
#659=DIRECTION('',(0.,1.,0.));
#660=DIRECTION('',(-0.430213378248991,0.,-0.902727228555554));
#661=DIRECTION('',(0.,1.,0.));
#662=DIRECTION('',(0.,0.,1.));
#663=DIRECTION('',(0.,-1.,0.));
#664=DIRECTION('',(0.,0.,-1.));
#665=DIRECTION('',(0.,1.,0.));
#666=DIRECTION('',(0.,-1.,0.));
#667=DIRECTION('',(0.,0.,-1.));
#668=DIRECTION('',(0.430213378248995,0.,0.902727228555551));
#669=DIRECTION('',(0.902727228555551,0.,-0.430213378248995));
#670=DIRECTION('',(0.902727228555551,0.,-0.430213378248995));
#671=DIRECTION('',(0.902727228555551,0.,-0.430213378248995));
#672=DIRECTION('',(0.,-1.,0.));
#673=DIRECTION('',(1.,0.,0.));
#674=DIRECTION('',(0.,-1.,0.));
#675=DIRECTION('',(1.,0.,0.));
#676=CARTESIAN_POINT('',(0.,0.,0.));
#677=CARTESIAN_POINT('',(0.0203241949263302,-0.04,-0.00480423012249009));
#678=CARTESIAN_POINT('',(0.0203241949263302,0.,-0.00480423012249009));
#679=CARTESIAN_POINT('',(0.0271965862044103,0.,-0.00480423012249009));
#680=CARTESIAN_POINT('',(0.0134518036482499,0.,-0.00480423012249009));
#681=CARTESIAN_POINT('',(0.0134518036482499,-0.04,-0.00480423012249009));
#682=CARTESIAN_POINT('',(0.0134518036482499,-0.04,-0.00480423012249009));
#683=CARTESIAN_POINT('',(0.0203241949263302,-0.04,-0.00480423012249009));
#684=CARTESIAN_POINT('',(0.0271965862044103,-0.04,-0.00480423012249009));
#685=CARTESIAN_POINT('',(0.0271965862044103,-0.04,-0.00480423012249009));
#686=CARTESIAN_POINT('',(0.0134518036482499,-0.04,-0.00619128067046404));
#687=CARTESIAN_POINT('',(0.0134518036482499,0.,-0.00619128067046404));
#688=CARTESIAN_POINT('',(0.012064753100276,0.,-0.00619128067046404));
#689=CARTESIAN_POINT('',(0.012064753100276,-0.04,-0.00619128067046404));
#690=CARTESIAN_POINT('',(0.012064753100276,-0.04,-0.00619128067046404));
#691=CARTESIAN_POINT('',(0.0134518036482499,-0.04,-0.00619128067046404));
#692=CARTESIAN_POINT('',(0.012064753100276,-0.04,-0.00689918152056634));
#693=CARTESIAN_POINT('',(0.012064753100276,0.,-0.00689918152056634));
#694=CARTESIAN_POINT('',(0.012064753100276,0.,-0.00760708237066865));
#695=CARTESIAN_POINT('',(0.012064753100276,-0.04,-0.00760708237066865));
#696=CARTESIAN_POINT('',(0.012064753100276,-0.04,-0.00760708237066865));
#697=CARTESIAN_POINT('',(0.012064753100276,-0.04,-0.00689918152056634));
#698=CARTESIAN_POINT('',(0.0181720312684775,-0.04,-0.00760708237066865));
#699=CARTESIAN_POINT('',(0.0181720312684775,0.,-0.00760708237066865));
#700=CARTESIAN_POINT('',(0.0242793094366789,0.,-0.00760708237066865));
#701=CARTESIAN_POINT('',(0.0242793094366789,-0.04,-0.00760708237066865));
#702=CARTESIAN_POINT('',(0.0242793094366789,-0.04,-0.00760708237066865));
#703=CARTESIAN_POINT('',(0.0181720312684775,-0.04,-0.00760708237066865));
#704=CARTESIAN_POINT('',(0.0209523532539606,-0.04,-0.0152731819543988));
#705=CARTESIAN_POINT('',(0.0209523532539606,0.,-0.0152731819543988));
#706=CARTESIAN_POINT('',(0.0176253970712423,0.,-0.0229392815381288));
#707=CARTESIAN_POINT('',(0.0176253970712423,-0.04,-0.0229392815381288));
#708=CARTESIAN_POINT('',(0.0176253970712423,-0.04,-0.0229392815381288));
#709=CARTESIAN_POINT('',(0.0209523532539606,-0.04,-0.0152731819543988));
#710=CARTESIAN_POINT('',(5.56306913495064E-5,-0.04,-0.0229725325480103));
#711=CARTESIAN_POINT('',(5.56306913495064E-5,0.,-0.0229725325480103));
#712=CARTESIAN_POINT('',(-0.0175141356885433,0.,-0.0230057835578919));
#713=CARTESIAN_POINT('',(-0.0175141356885433,-0.04,-0.0230057835578919));
#714=CARTESIAN_POINT('',(-0.0175141356885433,-0.04,-0.0230057835578919));
#715=CARTESIAN_POINT('',(5.56306913495064E-5,-0.04,-0.0229725325480103));
#716=CARTESIAN_POINT('',(-0.0207287375369924,-0.04,-0.0153620052151382));
#717=CARTESIAN_POINT('',(-0.0207287375369924,0.,-0.0153620052151382));
#718=CARTESIAN_POINT('',(-0.0239433393854415,0.,-0.00771822687238455));
#719=CARTESIAN_POINT('',(-0.0239433393854415,-0.04,-0.00771822687238455));
#720=CARTESIAN_POINT('',(-0.0239433393854415,-0.04,-0.00771822687238455));
#721=CARTESIAN_POINT('',(-0.0207287375369924,-0.04,-0.0153620052151382));
#722=CARTESIAN_POINT('',(-0.0187315708097645,-0.04,-0.00771822687238455));
#723=CARTESIAN_POINT('',(-0.0187315708097645,0.,-0.00771822687238455));
#724=CARTESIAN_POINT('',(-0.0135198022340875,0.,-0.00771822687238455));
#725=CARTESIAN_POINT('',(-0.0135198022340875,-0.04,-0.00771822687238455));
#726=CARTESIAN_POINT('',(-0.0135198022340875,-0.04,-0.00771822687238455));
#727=CARTESIAN_POINT('',(-0.0187315708097645,-0.04,-0.00771822687238455));
#728=CARTESIAN_POINT('',(-0.0135194310503771,-0.04,-0.00718408776447177));
#729=CARTESIAN_POINT('',(-0.0135194310503771,0.,-0.00718408776447177));
#730=CARTESIAN_POINT('',(-0.0135190598666668,0.,-0.00664994865655899));
#731=CARTESIAN_POINT('',(-0.0135190598666668,-0.04,-0.00664994865655899));
#732=CARTESIAN_POINT('',(-0.0135190598666668,-0.04,-0.00664994865655899));
#733=CARTESIAN_POINT('',(-0.0135194310503771,-0.04,-0.00718408776447177));
#734=CARTESIAN_POINT('',(-0.0152090089522786,-0.04,-0.00664877427789512));
#735=CARTESIAN_POINT('',(-0.0152090089522786,0.,-0.00664877427789512));
#736=CARTESIAN_POINT('',(-0.0152078345736148,0.,-0.00495882519228325));
#737=CARTESIAN_POINT('',(-0.0152078345736148,-0.04,-0.00495882519228325));
#738=CARTESIAN_POINT('',(-0.0152078345736148,-0.04,-0.00495882519228325));
#739=CARTESIAN_POINT('',(-0.0152090089522786,-0.04,-0.00664877427789512));
#740=CARTESIAN_POINT('',(-0.0204587373149293,-0.04,-0.00495517623729522));
#741=CARTESIAN_POINT('',(-0.0204587373149293,0.,-0.00495517623729522));
#742=CARTESIAN_POINT('',(-0.0257096400562436,0.,-0.00495152728230719));
#743=CARTESIAN_POINT('',(-0.0257096400562436,-0.04,-0.00495152728230719));
#744=CARTESIAN_POINT('',(-0.0257096400562436,-0.04,-0.00495152728230719));
#745=CARTESIAN_POINT('',(-0.0204587373149293,-0.04,-0.00495517623729522));
#746=CARTESIAN_POINT('',(-0.0257106039445583,-0.04,-0.00633857749536877));
#747=CARTESIAN_POINT('',(-0.0257106039445583,0.,-0.00633857749536877));
#748=CARTESIAN_POINT('',(-0.0270055721119796,0.,-0.00683553490601921));
#749=CARTESIAN_POINT('',(-0.0270055721119796,-0.04,-0.00683553490601921));
#750=CARTESIAN_POINT('',(-0.0270055721119796,-0.04,-0.00683553490601921));
#751=CARTESIAN_POINT('',(-0.0257106039445583,-0.04,-0.00633857749536877));
#752=CARTESIAN_POINT('',(-0.0237879684857706,-0.04,-0.0152199440767493));
#753=CARTESIAN_POINT('',(-0.0237879684857706,0.,-0.0152199440767493));
#754=CARTESIAN_POINT('',(-0.0205703648595617,0.,-0.0236043532474793));
#755=CARTESIAN_POINT('',(-0.0205703648595617,-0.04,-0.0236043532474793));
#756=CARTESIAN_POINT('',(-0.0205703648595617,-0.04,-0.0236043532474793));
#757=CARTESIAN_POINT('',(-0.0237879684857706,-0.04,-0.0152199440767493));
#758=CARTESIAN_POINT('',(-0.0187466018309966,-0.04,-0.0229044653466666));
#759=CARTESIAN_POINT('',(-0.0187466018309966,0.,-0.0229044653466666));
#760=CARTESIAN_POINT('',(-0.0187466018309966,0.,-0.0248579122126102));
#761=CARTESIAN_POINT('',(-0.0187466018309966,-0.04,-0.0248579122126102));
#762=CARTESIAN_POINT('',(-0.0187466018309966,-0.04,-0.0248579122126102));
#763=CARTESIAN_POINT('',(-0.0187466018309966,-0.04,-0.0229044653466666));
#764=CARTESIAN_POINT('',(-0.000329611856940418,-0.04,-0.0248579122126102));
#765=CARTESIAN_POINT('',(-0.000329611856940418,0.,-0.0248579122126102));
#766=CARTESIAN_POINT('',(0.0180873781171157,0.,-0.0248579122126102));
#767=CARTESIAN_POINT('',(0.0180873781171157,-0.04,-0.0248579122126102));
#768=CARTESIAN_POINT('',(0.0180873781171157,-0.04,-0.0248579122126102));
#769=CARTESIAN_POINT('',(-0.000329611856940418,-0.04,-0.0248579122126102));
#770=CARTESIAN_POINT('',(0.0180873781171157,-0.04,-0.0229044653466666));
#771=CARTESIAN_POINT('',(0.0180873781171157,0.,-0.0229044653466666));
#772=CARTESIAN_POINT('',(0.0198738697690815,0.,-0.023694656611818));
#773=CARTESIAN_POINT('',(0.0198738697690815,-0.04,-0.023694656611818));
#774=CARTESIAN_POINT('',(0.0198738697690815,-0.04,-0.023694656611818));
#775=CARTESIAN_POINT('',(0.0180873781171157,-0.04,-0.0229044653466666));
#776=CARTESIAN_POINT('',(0.0235352279867459,-0.04,-0.0154169317378789));
#777=CARTESIAN_POINT('',(0.0235352279867459,0.,-0.0154169317378789));
#778=CARTESIAN_POINT('',(0.0271965862044103,0.,-0.00713920686393973));
#779=CARTESIAN_POINT('',(0.0271965862044103,-0.04,-0.00713920686393973));
#780=CARTESIAN_POINT('',(0.0271965862044103,-0.04,-0.00713920686393973));
#781=CARTESIAN_POINT('',(0.0235352279867459,-0.04,-0.0154169317378789));
#782=CARTESIAN_POINT('',(0.0363419163544719,-0.04,-0.0111843195257052));
#783=CARTESIAN_POINT('',(0.0363419163544719,0.,-0.0111843195257052));
#784=CARTESIAN_POINT('',(0.0454872465045334,0.,-0.0152294321874707));
#785=CARTESIAN_POINT('',(0.0454872465045334,-0.04,-0.0152294321874707));
#786=CARTESIAN_POINT('',(0.0454872465045334,-0.04,-0.0152294321874707));
#787=CARTESIAN_POINT('',(0.0363419163544719,-0.04,-0.0111843195257052));
#788=CARTESIAN_POINT('',(0.0497265055731691,-0.04,-0.0175147582751926));
#789=CARTESIAN_POINT('',(0.0497265055731691,0.,-0.0175147582751926));
#790=CARTESIAN_POINT('',(0.0539657646418048,0.,-0.0198000843629148));
#791=CARTESIAN_POINT('',(0.0539657646418048,-0.04,-0.0198000843629148));
#792=CARTESIAN_POINT('',(0.0539657646418048,-0.04,-0.0198000843629148));
#793=CARTESIAN_POINT('',(0.0497265055731691,-0.04,-0.0175147582751926));
#794=CARTESIAN_POINT('',(0.054203027658692,-0.04,-0.0193599636285503));
#795=CARTESIAN_POINT('',(0.054203027658692,0.,-0.0193599636285503));
#796=CARTESIAN_POINT('',(0.0546543912729697,0.,-0.0195750703176747));
#797=CARTESIAN_POINT('',(0.0546543912729697,-0.04,-0.0195750703176747));
#798=CARTESIAN_POINT('',(0.0546543912729697,-0.04,-0.0195750703176747));
#799=CARTESIAN_POINT('',(0.054203027658692,-0.04,-0.0193599636285503));
#800=CARTESIAN_POINT('',(0.0547687198317181,-0.04,-0.0193351719132975));
#801=CARTESIAN_POINT('',(0.0547687198317181,0.,-0.0193351719132975));
#802=CARTESIAN_POINT('',(0.0548830483904665,0.,-0.0190952735089202));
#803=CARTESIAN_POINT('',(0.0548830483904665,-0.04,-0.0190952735089202));
#804=CARTESIAN_POINT('',(0.0548830483904665,-0.04,-0.0190952735089202));
#805=CARTESIAN_POINT('',(0.0547687198317181,-0.04,-0.0193351719132975));
#806=CARTESIAN_POINT('',(0.0539895040999626,-0.04,-0.0186694364502022));
#807=CARTESIAN_POINT('',(0.0539895040999626,0.,-0.0186694364502022));
#808=CARTESIAN_POINT('',(0.0544153411586806,0.,-0.0177758921596982));
#809=CARTESIAN_POINT('',(0.0544153411586806,-0.04,-0.0177758921596982));
#810=CARTESIAN_POINT('',(0.0544153411586806,-0.04,-0.0177758921596982));
#811=CARTESIAN_POINT('',(0.0539895040999626,-0.04,-0.0186694364502022));
#812=CARTESIAN_POINT('',(0.0408059636815455,-0.04,-0.0112900611410942));
#813=CARTESIAN_POINT('',(0.0408059636815455,0.,-0.0112900611410942));
#814=CARTESIAN_POINT('',(0.0408059636815455,-0.04,-0.0112900611410942));
#815=CARTESIAN_POINT('',(0.0139408385840016,-0.04,-0.0148310711675502));
#816=CARTESIAN_POINT('',(0.0139408385840016,0.,-0.0148310711675502));
#817=MECHANICAL_DESIGN_GEOMETRIC_PRESENTATION_REPRESENTATION('',(#490),
#818);
#818=(
GEOMETRIC_REPRESENTATION_CONTEXT(3)
GLOBAL_UNCERTAINTY_ASSIGNED_CONTEXT((#819))
GLOBAL_UNIT_ASSIGNED_CONTEXT((#822,#821,#820))
REPRESENTATION_CONTEXT('Part 1','TOP_LEVEL_ASSEMBLY_PART')
);
#819=UNCERTAINTY_MEASURE_WITH_UNIT(LENGTH_MEASURE(1.E-8),#822,
'DISTANCE_ACCURACY_VALUE','Maximum Tolerance applied to model');
#820=(
NAMED_UNIT(*)
SI_UNIT($,.STERADIAN.)
SOLID_ANGLE_UNIT()
);
#821=(
NAMED_UNIT(*)
PLANE_ANGLE_UNIT()
SI_UNIT($,.RADIAN.)
);
#822=(
LENGTH_UNIT()
NAMED_UNIT(*)
SI_UNIT($,.METRE.)
);
#823=PRODUCT_DEFINITION_SHAPE('','',#824);
#824=PRODUCT_DEFINITION('','',#826,#825);
#825=PRODUCT_DEFINITION_CONTEXT('',#832,'design');
#826=PRODUCT_DEFINITION_FORMATION_WITH_SPECIFIED_SOURCE('','',#828,
 .NOT_KNOWN.);
#827=PRODUCT_RELATED_PRODUCT_CATEGORY('','',(#828));
#828=PRODUCT('Part 1','Part 1','Part 1',(#830));
#829=PRODUCT_CATEGORY('','');
#830=PRODUCT_CONTEXT('',#832,'mechanical');
#831=APPLICATION_PROTOCOL_DEFINITION('international standard',
'ap242_managed_model_based_3d_engineering',2020,#832);
#832=APPLICATION_CONTEXT('managed model based 3d engineering');
ENDSEC;
END-ISO-10303-21;
